<?xml version="1.0" standalone="no"?>
<!DOCTYPE svg PUBLIC "-//W3C//DTD SVG 20010904//EN"
 "http://www.w3.org/TR/2001/REC-SVG-20010904/DTD/svg10.dtd">
<svg version="1.0" xmlns="http://www.w3.org/2000/svg"
 width="1024.000000pt" height="1024.000000pt" viewBox="0 0 1024.000000 1024.000000"
 preserveAspectRatio="xMidYMid meet">
<circle cx="512" cy="512" r="50%" fill="#f32534" stroke="none" />
<g transform="translate(0.000000,1024.000000) scale(0.100000,-0.100000)"
fill="#0F0" stroke="none">
<path d="M4815 10230 c-1107 -75 -2084 -459 -2945 -1157 -163 -132 -533 -496
-659 -648 -267 -322 -477 -639 -656 -990 -761 -1495 -733 -3302 73 -4768 629
-1143 1643 -1993 2867 -2402 506 -170 967 -249 1515 -262 838 -19 1653 163
2396 535 1479 741 2505 2135 2769 3765 76 467 85 994 25 1462 -164 1284 -804
2453 -1795 3280 -800 668 -1765 1069 -2810 1170 -197 19 -605 27 -780 15z
m1446 -1341 c74 -6 148 -14 166 -17 l32 -7 -524 -975 c-288 -536 -531 -985
-540 -997 -15 -22 -21 -22 -203 -22 -248 0 -427 -24 -661 -87 -51 -14 -95 -24
-97 -21 -5 4 537 2019 546 2030 16 18 380 78 585 96 148 12 543 13 696 0z
m883 -165 c266 -79 571 -205 811 -336 138 -75 415 -249 434 -272 10 -12 -78
-90 -486 -433 -274 -230 -664 -559 -868 -730 -203 -171 -401 -338 -440 -372
-38 -33 -76 -60 -83 -61 -7 0 -95 40 -195 90 -194 95 -360 156 -532 195 -59
13 -108 25 -110 27 -5 6 1328 1928 1338 1928 6 0 64 -16 131 -36z m-2586 -156
c-10 -62 -75 -437 -144 -833 -69 -396 -137 -790 -151 -875 -15 -85 -30 -160
-35 -167 -5 -6 -64 -38 -131 -71 -208 -100 -445 -261 -610 -412 -37 -34 -71
-60 -74 -56 -4 3 -23 212 -44 464 -21 251 -54 645 -73 874 -20 229 -36 433
-36 452 0 32 7 39 109 115 230 170 510 336 751 447 143 65 417 173 441 174 14
0 14 -11 -3 -112z m-1468 -1583 c84 -374 166 -741 183 -815 l30 -136 -78 -99
c-99 -126 -205 -287 -286 -434 l-63 -115 -339 685 -339 684 23 40 c26 46 275
402 343 490 72 92 359 396 367 388 3 -5 75 -314 159 -688z m2412 -230 c408
-56 821 -233 1193 -510 119 -88 255 -202 255 -214 0 -9 41 19 -977 -677 -488
-334 -1045 -715 -1238 -847 -192 -131 -359 -247 -369 -257 -19 -19 -19 -23 32
-266 29 -136 53 -249 55 -250 1 -1 58 9 126 22 68 14 129 23 134 21 10 -3 537
-1099 532 -1105 -1 -1 -71 7 -156 17 -561 72 -943 70 -1205 -4 -129 -37 -226
-87 -289 -150 l-53 -54 -101 102 c-406 411 -645 947 -691 1552 -19 249 12 542
86 811 181 661 644 1229 1264 1552 258 135 567 228 875 265 90 11 424 6 527
-8z m-3098 -939 c213 -285 394 -529 402 -541 14 -22 12 -33 -26 -146 -41 -122
-82 -283 -95 -372 -4 -26 -11 -47 -16 -45 -8 3 -857 751 -916 808 -18 17 -33
36 -33 41 0 19 41 173 77 289 42 138 98 289 154 417 34 76 44 92 54 81 7 -7
187 -246 399 -532z m4889 57 c111 -680 217 -1350 217 -1369 0 -13 -8 -25 -17
-28 -10 -3 -376 -76 -813 -161 -437 -86 -1092 -214 -1456 -285 -363 -72 -668
-130 -677 -130 -16 0 -23 20 -68 188 -15 55 -20 89 -13 98 9 13 2774 1914
2784 1914 3 0 22 -102 43 -227z m-5156 -999 c263 -163 486 -303 496 -311 15
-14 17 -41 18 -257 0 -133 4 -268 8 -301 5 -33 7 -62 5 -64 -3 -3 -930 314
-1014 348 l-45 17 -3 200 c-4 256 26 664 48 664 5 0 223 -133 487 -296z m33
-1014 c272 -57 504 -108 516 -115 14 -9 27 -39 44 -102 13 -48 38 -131 55
-184 l33 -96 -526 -6 c-289 -4 -528 -5 -530 -3 -9 10 -73 291 -96 424 -31 178
-32 195 -8 189 9 -3 240 -51 512 -107z m3214 -348 c139 -137 292 -276 411
-373 318 -258 455 -403 630 -664 189 -284 331 -594 404 -886 21 -85 21 -86 2
-147 -10 -34 -33 -84 -51 -111 -73 -114 -265 -263 -465 -360 -127 -63 -150
-69 -165 -44 -23 37 -1260 2727 -1260 2739 0 9 188 54 264 63 5 1 109 -97 230
-217z m-2504 -312 c11 -11 38 -57 61 -102 23 -45 61 -115 86 -156 25 -41 41
-78 37 -82 -5 -4 -108 -61 -229 -126 -121 -65 -319 -171 -440 -236 l-220 -118
-17 22 c-50 66 -280 569 -267 583 4 4 932 230 962 234 4 1 16 -8 27 -19z
m1800 -610 c312 -31 533 -59 542 -68 10 -10 277 -591 284 -619 8 -30 -244
-483 -268 -483 -10 0 -107 16 -215 35 -406 71 -685 102 -1018 112 -288 8 -542
-18 -734 -77 -36 -11 -66 -18 -67 -17 -1 1 52 126 117 277 66 151 154 358 196
458 86 206 112 241 210 291 100 50 245 85 433 104 104 11 339 5 520 -13z"/>
<path fill="#FF00FF" d="M4397 6325 c-516 -284 -940 -705 -1158 -1150 -276 -564 -259 -1197
52 -1886 57 -128 141 -287 169 -321 l18 -23 82 40 c45 22 84 43 86 46 2 4 -39
80 -92 170 -269 462 -363 787 -351 1214 5 186 18 279 61 439 70 262 228 561
432 816 163 203 473 481 715 641 96 63 117 79 107 79 -2 0 -56 -29 -121 -65z"/>
<path fill="#0000FF" d="M4200 2484 c-14 -2 -59 -9 -100 -15 -118 -16 -288 -59 -310 -77 -18
-16 -295 -581 -287 -588 1 -2 89 118 195 266 l192 269 80 25 c193 62 417 105
551 107 61 1 62 2 24 10 -39 8 -295 10 -345 3z"/>
</g>
</svg>
