<?xml version="1.0" encoding="UTF-8" standalone="no"?>
<!-- Created with Inkscape (http://www.inkscape.org/) -->

<svg
   width="130.35542mm"
   height="75.319153mm"
   viewBox="0 0 130.35542 75.319153"
   version="1.1"
   id="svg1"
   inkscape:version="1.4.2 (ebf0e940, 2025-05-08)"
   sodipodi:docname="meulogotipo.svg"
   xmlns:inkscape="http://www.inkscape.org/namespaces/inkscape"
   xmlns:sodipodi="http://sodipodi.sourceforge.net/DTD/sodipodi-0.dtd"
   xmlns="http://www.w3.org/2000/svg"
   xmlns:svg="http://www.w3.org/2000/svg">
  <sodipodi:namedview
     id="namedview1"
     pagecolor="#ffffff"
     bordercolor="#000000"
     borderopacity="0.25"
     inkscape:showpageshadow="2"
     inkscape:pageopacity="0.0"
     inkscape:pagecheckerboard="0"
     inkscape:deskcolor="#d1d1d1"
     inkscape:document-units="mm"
     inkscape:clip-to-page="false"
     inkscape:zoom="1.2525328"
     inkscape:cx="378.83239"
     inkscape:cy="282.62733"
     inkscape:window-width="1728"
     inkscape:window-height="1051"
     inkscape:window-x="0"
     inkscape:window-y="1118"
     inkscape:window-maximized="1"
     inkscape:current-layer="layer1" />
  <defs
     id="defs1" />
  <g
     inkscape:label="Camada 1"
     inkscape:groupmode="layer"
     id="layer1"
     transform="translate(-0.61665808,-0.66139)">
    <g
       id="g1"
       transform="translate(-38.656672,-143.43104)">
      <path
         style="display:inline;fill:#023c6e;fill-opacity:1;stroke-width:0.132291"
         d="m 57.837448,219.13645 c -0.21561,-0.15102 -0.39202,-0.4555 -0.39202,-0.67663 0,-0.3522 1.47133,-4.26711 6.8186,-18.14288 1.3425,-3.48368 1.3425,-3.48368 5.26948,-3.48368 h 3.92699 l -0.9246,2.42535 c -0.92444,2.42493 -4.90291,12.7029 -6.62226,17.10795 -1.23361,3.16056 -1.05256,3.04448 -4.74859,3.04448 -2.37144,0 -3.01091,-0.0528 -3.3276,-0.27459 z M 114.09517,218.485 c -0.20066,-0.50933 -1.8037,-4.69636 -3.56231,-9.30452 -1.75861,-4.60815 -3.46348,-9.05315 -3.78859,-9.87777 -0.32512,-0.82462 -1.38192,-3.56306 -2.34845,-6.08541 -0.96653,-2.52237 -2.98921,-7.80081 -4.494852,-11.72987 -1.50563,-3.92906 -3.66247,-9.56469 -4.79299,-12.52361 -3.72593,-9.75194 -5.29394,-13.756 -5.38739,-13.75718 -0.0507,-5e-4 -1.26151,3.03494 -2.69066,6.74572 -1.42915,3.71078 -3.27683,8.49313 -4.10594,10.62743 -2.60499,6.70574 -5.57709,14.3884 -6.33852,16.38464 -1.15742,3.03436 -0.34436,2.75356 -7.97285,2.75356 -7.33363,0 -7.3546,-0.004 -8.12158,-1.34128 -0.75243,-1.31244 -0.32571,-3.21774 0.88615,-3.95665 0.51584,-0.31452 0.90521,-0.34526 4.38101,-0.34586 2.84396,-5e-4 3.85767,-0.0568 3.98304,-0.22114 0.13847,-0.18154 4.3162,-10.93355 8.00163,-20.59341 6.9335,-18.17336 7.74605,-20.20418 8.27493,-20.68159 0.53736,-0.48507 0.53736,-0.48507 3.63014,-0.48507 3.5873,0 3.9679,0.10945 4.49038,1.29134 0.17923,0.40542 1.23602,3.15807 2.34842,6.11699 1.11241,2.95893 2.99101,7.91986 4.174672,11.02431 1.18366,3.10444 3.20675,8.42257 4.49576,11.81805 3.67779,9.68794 6.91352,18.14476 9.61727,25.13542 1.36953,3.541 3.02062,7.85759 3.66906,9.59242 1.17901,3.15423 1.17901,3.15423 3.64845,3.04459 6.78779,-0.30139 12.24836,-2.66936 16.58493,-7.19204 3.23091,-3.36957 5.31341,-7.46517 6.47595,-12.73612 0.37941,-1.72025 0.3955,-2.13944 0.39714,-10.34774 0.001,-8.26392 -0.0121,-8.62085 -0.40582,-10.49514 -2.03305,-9.67971 -8.18167,-16.37038 -17.26749,-18.78973 -2.53391,-0.67473 -4.78756,-0.87054 -10.06111,-0.87419 l -4.98196,-0.004 -0.0451,14.44647 c -0.0451,14.44646 -0.0451,14.44646 -1.136,11.59756 -0.59998,-1.56689 -2.22717,-5.74608 -3.61598,-9.28708 -2.52509,-6.4382 -2.52509,-6.4382 -2.57234,-15.38994 l -0.0473,-8.95173 h 8.09144 c 8.83924,0 11.57996,0.14669 14.69,0.78627 2.79703,0.5752 4.90872,1.31831 7.82835,2.75479 9.85642,4.84944 16.11411,14.37652 17.19616,26.18046 0.23494,2.56282 0.2287,14.02112 -0.009,16.34138 -1.17887,11.51281 -7.46116,21.0731 -17.05781,25.95836 -4.96605,2.52802 -8.9011,3.29679 -16.87495,3.29679 -4.82117,0 -4.82117,0 -5.186,-0.92604 z m -21.812942,-0.20214 c -2.04919,-0.50671 -3.47621,-1.62603 -4.35915,-3.4192 -0.57974,-1.17742 -0.57974,-1.17742 -0.6292,-14.36641 -0.0272,-7.25394 -0.10658,-13.18917 -0.17639,-13.1894 -0.0698,-2.6e-4 -1.22208,0.25497 -2.56059,0.56711 -2.523,0.58836 -2.95878,0.57355 -3.09229,-0.10507 -0.0492,-0.24989 6.22058,-11.74458 7.49765,-13.74588 0.69913,-1.0956 1.01661,-0.89497 2.32024,1.4662 5.54608,10.04522 6.55961,11.949 6.51683,12.24101 -0.10582,0.72231 -0.53434,0.74258 -2.99704,0.14177 -1.28902,-0.31448 -2.40623,-0.5702 -2.48268,-0.56826 -0.18919,0.005 -0.1314,22.42676 0.0609,23.6213 0.19319,1.2001 0.65719,1.70696 1.78382,1.94858 0.51546,0.11054 3.3413,0.18643 6.941992,0.18643 7.09774,0 6.20911,-0.34304 7.24575,2.79714 0.49519,1.50004 0.61545,2.07616 0.47867,2.29305 -0.16441,0.2607 -0.95702,0.29268 -7.92461,0.3197 -5.644412,0.0219 -7.980872,-0.029 -8.623872,-0.18807 z"
         id="path31"
         inkscape:label="AD"
         sodipodi:nodetypes="sssscsssscssssscsssscsssssssssssssssccsccsssccsssscssccsssssssssscssssssss" />
      <path
         style="display:inline;fill:#df6528;fill-opacity:1;stroke-width:0.132291"
         d="m 55.388388,204.8968 c -0.36963,-0.20766 -1.17031,-0.94841 -5.26987,-4.87549 -2.00467,-1.92033 -4.42927,-4.24159 -8.1123,-7.76654 -2.53438,-2.42561 -2.72479,-2.68427 -2.7324,-3.71178 -0.006,-0.79375 -0.006,-0.79375 3.19107,-3.92635 5.67199,-5.55783 12.52264,-12.0301 12.9994,-12.28139 1.58605,-0.83597 3.57227,0.57043 3.0482,2.15837 -0.12788,0.38748 -2.18728,2.49953 -6.66737,6.83782 -3.56528,3.45244 -6.72046,6.48492 -7.0115,6.73885 -0.52916,0.4617 -0.52916,0.4617 1.5875,2.54565 3.70575,3.64846 10.85844,10.513 11.21326,10.76153 0.80798,0.56593 1.07772,1.77321 0.60181,2.69351 -0.47756,0.92349 -1.92619,1.34358 -2.8478,0.82582 z m 102.951482,-2.04359 c 0,-2.27033 0,-2.27033 0.83785,-2.38706 0.94243,-0.13129 1.24423,-0.31708 1.73305,-1.06689 0.2934,-0.45008 0.35413,-0.97715 0.44707,-3.88056 0.12905,-4.03196 0.29755,-4.64167 1.67593,-6.06478 0.93466,-0.96497 0.93466,-0.96497 0.17076,-1.8146 -1.5079,-1.67714 -1.86605,-2.98235 -1.86605,-6.80035 0,-2.19663 -0.048,-2.63467 -0.3545,-3.23549 -0.40701,-0.79778 -1.11752,-1.23133 -2.01799,-1.23133 -0.62612,0 -0.62612,0 -0.62612,-2.22972 0,-2.22972 0,-2.22972 1.50208,-2.13601 1.85917,0.11599 3.1249,0.68239 4.42392,1.97965 1.48729,1.48529 1.69877,2.26554 1.82931,6.74886 0.0985,3.38331 0.14349,3.79153 0.46519,4.22243 0.58287,0.78067 1.16751,1.11658 2.14485,1.23233 0.92354,0.10938 0.92354,0.10938 0.92354,2.28967 0,2.1803 0,2.1803 -0.723,2.1803 -0.97499,0 -1.74465,0.39858 -2.27561,1.17849 -0.42818,0.62892 -0.44366,0.75818 -0.53339,4.45302 -0.0902,3.71576 -0.10423,3.83111 -0.59517,4.90285 -0.59412,1.29703 -1.99399,2.71002 -3.19482,3.22476 -0.80811,0.34639 -2.56285,0.7009 -3.48183,0.70343 -0.48507,0.001 -0.48507,0.001 -0.48507,-2.269 z"
         id="path1"
         sodipodi:nodetypes="sssccssssssssssssssssssssssssssssscs" />
    </g>
  </g>
</svg>
